<?xml version="1.0" encoding="utf-8"?>
<!-- Generator: Adobe Illustrator 24.3.0, SVG Export Plug-In . SVG Version: 6.00 Build 0)  -->
<svg version="1.1" id="Layer_1" xmlns="http://www.w3.org/2000/svg" xmlns:xlink="http://www.w3.org/1999/xlink" x="0px" y="0px"
	 viewBox="0 0 350 350" enable-background="new 0 0 350 350" xml:space="preserve">
<g>
	<path fill="#2AA9E1" d="M317.532,77.095c-0.769-2.422-3.013-4.069-5.555-4.069H38.021c-3.212,0-5.822,2.608-5.822,5.824v192.302
		c0,2.172,1.211,4.166,3.137,5.166c0.845,0.44,1.769,0.656,2.685,0.656c1.177,0,2.348-0.355,3.347-1.057l273.955-192.3
		C317.401,82.156,318.294,79.518,317.532,77.095z M43.844,259.948V84.675h17.591v13.177c0,3.216,2.611,5.822,5.822,5.822
		c3.221,0,5.825-2.606,5.825-5.822V84.675h17.956v13.177c0,3.216,2.611,5.822,5.822,5.822c3.221,0,5.825-2.606,5.825-5.822V84.675
		h17.961v13.177c0,3.216,2.603,5.822,5.823,5.822c3.212,0,5.822-2.606,5.822-5.822V84.675h17.956v13.177
		c0,3.216,2.604,5.822,5.822,5.822c3.214,0,5.825-2.606,5.825-5.822V84.675h17.958v13.177c0,3.216,2.61,5.822,5.822,5.822
		c3.221,0,5.825-2.606,5.825-5.822V84.675h17.955v13.177c0,3.216,2.611,5.822,5.823,5.822c3.22,0,5.822-2.606,5.822-5.822V84.675
		h17.955v13.177c0,3.216,2.611,5.822,5.825,5.822c3.219,0,5.823-2.606,5.823-5.822V84.675h42.843L43.844,259.948z"/>
	<path fill="#2AA9E1" d="M182.949,113.791H78.787c-3.213,0-5.824,2.608-5.824,5.824v73.111c0,2.172,1.211,4.167,3.141,5.168
		c0.843,0.441,1.768,0.657,2.683,0.657c1.177,0,2.35-0.356,3.347-1.056l104.16-73.111c2.082-1.463,2.975-4.102,2.207-6.523
		C187.735,115.439,185.49,113.791,182.949,113.791z M84.612,181.528v-56.087h79.901L84.612,181.528z"/>
</g>
</svg>
